{"title":"L.A. Law (1986) Season 1 complete","uid":5390656,"size":5611935744,"categoryP":"video","categoryS":"tv_shows","magnet":"?xt=urn:btih:677e0d5aac89c7fb9da91ae1232ae03298109330&amp;dn=L.A.+Law+%281986%29+Season+1+complete&amp;tr=udp%3A%2F%2Ftracker.openbittorrent.com%3A80&amp;tr=udp%3A%2F%2Fopen.demonii.com%3A1337&amp;tr=udp%3A%2F%2Ftracker.coppersurfer.tk%3A6969&amp;tr=udp%3A%2F%2Fexodus.desync.com%3A6969","seeders":4,"leechers":2,"uploader":"Kuthumi","files":-1,"time":1267049492,"description":"a.k.a.\n \nLA Law (1986) \nL. A. Law (1986)\n\nComplete series 1\n &lt;a href=&quot;\nhttp://www.imdb.com/title/tt0090466/&quot; rel=&quot;nofollow&quot; target=&quot;_NEW&quot;&gt;\nhttp://www.imdb.com/title/tt0090466/&lt;/a&gt;\n\n\nThe lives and work of the staff in a major Los Angeles law firm.\n\nThis very popular series from the '80s har only been available as a torrent without enough seeders. I managed to get it up to 100% after two weeks of patient waiting. Amazon has promised a future DVD to be signed up for. In the meantime, you can do with this.\n\nThis must be a TV-rip from a rerun. Quality is not great, but OK, and sound is stereo in some of the episodes. Many TV channels did not have stereo copies or equipment when the series originally aired. \n\nFormat/Info                      : Audio Video Interleave\nFile size                        : 233 MiB\nDuration                         : 45mn 51s\nOveral bit rate                  : 710 Kbps\nWriting application              : VirtualDubMod 1.5.4.1 (build 2178/release)\nWriting library                  : VirtualDubMod build 2178/release\n\nVideo\nFormat                           : MPEG-4 Visual\nFormat profile                   : Streaming Video@L1\nFormat settings, BVOP            : Yes\nFormat settings, QPel            : No\nFormat settings, GMC             : No warppoints\nFormat settings, Matrix          : Default\nMuxing mode                      : Packet Bitstream\nCodec ID                         : XVID\nCodec ID/Hint                    : XviD\nDuration                         : 45mn 51s\nBit rate                         : 575 Kbps\nWidth                            : 512 pixels\nHeight                           : 384 pixels\nDisplay aspect ratio             : 4/3\nFrame rate                       : 23.976 fps\nResolution                       : 8 bits\nColorimetry                      : 4:2:0\nScan type                        : Progressive\nBits/(Pixel*Frame)               : 0.122\nStream size                      : 189 MiB\nWriting library                  : XviD 1.2.0.dev47 (UTC 2006-11-01)\n\nAudio\nFormat                           : MPEG Audio\nFormat version                   : Version 1\nFormat profile                   : Layer 3\nCodec ID                         : 55\nCodec ID/Hint                    : MP3\nDuration                         : 45mn 51s\nBit rate mode                    : Constant\nBit rate                         : 128 Kbps\nMinimum bit rate                 : 128 Kbps\nChannel(s)                       : 2 channels\nSampling rate                    : 48.0 KHz\nResolution                       : 16 bits\nStream size                      : 42.0 MiB\nWriting library                  : LAME3.97 \nEncoding settings                : CBR\n\nWith thanks to the original ripper and uploader, and to the recent seeder who got us up to 100%.","torrent":{"xt":"urn:btih:677e0d5aac89c7fb9da91ae1232ae03298109330","amp;dn":"L.A.+Law+%281986%29+Season+1+complete","amp;tr":["udp%3A%2F%2Ftracker.openbittorrent.com%3A80","udp%3A%2F%2Fopen.demonii.com%3A1337","udp%3A%2F%2Ftracker.coppersurfer.tk%3A6969","udp%3A%2F%2Fexodus.desync.com%3A6969"],"infoHash":"677e0d5aac89c7fb9da91ae1232ae03298109330","infoHashBuffer":{"type":"Buffer","data":[103,126,13,90,172,137,199,251,157,169,26,225,35,42,224,50,152,16,147,48]},"announce":[],"urlList":[]}}